<svg xmlns="http://www.w3.org/2000/svg" version="1.1" xmlns:xlink="http://www.w3.org/1999/xlink" xmlns:svgjs="http://svgjs.com/svgjs" width="1440" height="560" preserveAspectRatio="none" viewBox="0 0 1440 560"><g mask="url(&quot;#SvgjsMask1105&quot;)" fill="none"><rect width="1440" height="560" x="0" y="0" fill="url(#SvgjsLinearGradient1106)"></rect><path d="M516.283,475.311C561.111,474.621,603.766,451.695,624.643,412.019C644.31,374.641,633.363,330.618,611.401,294.541C590.457,260.136,556.541,235.292,516.283,234.016C473.726,232.667,432.809,252.135,410.114,288.16C385.826,326.714,379.505,375.811,401.989,415.445C424.734,455.539,470.192,476.02,516.283,475.311" fill="rgba(28, 83, 142, 0.4)" class="triangle-float2"></path><path d="M1334.965,266.824C1385.281,264.672,1417.315,219.595,1443.003,176.277C1469.443,131.69,1499.385,78.824,1472.86,34.288C1446.642,-9.733,1386.2,-5.567,1334.965,-5.123C1284.886,-4.689,1228.589,-5.253,1201.152,36.644C1171.822,81.433,1182.73,139.974,1209.637,186.259C1236.389,232.277,1281.785,269.099,1334.965,266.824" fill="rgba(28, 83, 142, 0.4)" class="triangle-float1"></path><path d="M575.273,128.759C603.212,128.926,634.454,127.828,649.559,104.324C665.549,79.442,658.462,47.554,644.06,21.72C629.199,-4.937,605.778,-29.855,575.273,-28.929C545.79,-28.034,527.563,-0.163,513.354,25.686C499.841,50.268,488.06,79.401,502.505,103.447C516.679,127.042,547.748,128.595,575.273,128.759" fill="rgba(28, 83, 142, 0.4)" class="triangle-float3"></path><path d="M1427.107,654.013C1471.283,652.52,1517.268,638.695,1538.335,599.837C1558.682,562.307,1541.599,518.811,1520.542,481.675C1499.094,443.85,1470.567,405.101,1427.107,403.677C1381.841,402.194,1346.089,436.564,1322.431,475.184C1297.387,516.066,1277.828,566.446,1302.047,607.822C1326.108,648.928,1379.504,655.622,1427.107,654.013" fill="rgba(28, 83, 142, 0.4)" class="triangle-float3"></path><path d="M244.736,636.087C285.294,637.278,326.641,623.908,348.377,589.646C371.59,553.055,373.14,505.708,351.124,468.385C329.432,431.61,287.432,413.835,244.736,413.945C202.251,414.055,159.796,431.721,139.295,468.933C119.379,505.084,129.108,548.943,151.129,583.852C171.561,616.243,206.456,634.963,244.736,636.087" fill="rgba(28, 83, 142, 0.4)" class="triangle-float3"></path><path d="M855.3204685419225 389.9680936180364L1000.1265943158456 407.74805018723833 1017.9065508850476 262.94192441331523 873.1004251111245 245.1619678441133z" fill="rgba(28, 83, 142, 0.4)" class="triangle-float3"></path></g><defs><mask id="SvgjsMask1105"><rect width="1440" height="560" fill="#ffffff"></rect></mask><linearGradient x1="15.28%" y1="-39.29%" x2="84.72%" y2="139.29%" gradientUnits="userSpaceOnUse" id="SvgjsLinearGradient1106"><stop stop-color="#0e2a47" offset="0"></stop><stop stop-color="rgba(40, 93, 160, 1)" offset="1"></stop></linearGradient><style>
            @keyframes float1 {
                0%{transform: translate(0, 0)}
                50%{transform: translate(-20px, 0)}
                100%{transform: translate(0, 0)}
            }

            .triangle-float1 {
                animation: float1 5s infinite;
            }

            @keyframes float2 {
                0%{transform: translate(0, 0)}
                50%{transform: translate(-15px, -15px)}
                100%{transform: translate(0, 0)}
            }

            .triangle-float2 {
                animation: float2 4s infinite;
            }

            @keyframes float3 {
                0%{transform: translate(0, 0)}
                50%{transform: translate(0, -10px)}
                100%{transform: translate(0, 0)}
            }

            .triangle-float3 {
                animation: float3 6s infinite;
            }
        </style></defs></svg>